{
	"asset":{
		"generator":"Khronos glTF Blender I/O v4.3.47",
		"version":"2.0"
	},
	"scene":0,
	"scenes":[
		{
			"name":"Scene",
			"nodes":[
				0
			]
		}
	],
	"nodes":[
		{
			"mesh":0,
			"name":"Tree3_1",
			"rotation":[
				0.7071068286895752,
				0,
				0,
				0.7071068286895752
			],
			"scale":[
				0.006000000052154064,
				0.006000000052154064,
				0.006000000052154064
			]
		}
	],
	"materials":[
		{
			"doubleSided":true,
			"name":"TreesMaterial",
			"pbrMetallicRoughness":{
				"baseColorTexture":{
					"index":0
				},
				"metallicFactor":0,
				"metallicRoughnessTexture":{
					"index":1
				}
			}
		}
	],
	"meshes":[
		{
			"name":"Sphere.011",
			"primitives":[
				{
					"attributes":{
						"POSITION":0,
						"NORMAL":1,
						"TEXCOORD_0":2
					},
					"indices":3,
					"material":0
				}
			]
		}
	],
	"textures":[
		{
			"sampler":0,
			"source":0
		},
		{
			"sampler":0,
			"source":1
		}
	],
	"images":[
		{
			"mimeType":"image/png",
			"name":"Trees_Base_color_512x512",
			"uri":"Trees_Base_color_512x512.png"
		},
		{
			"mimeType":"image/png",
			"name":"Trees_Roughness_color_512x512",
			"uri":"Trees_Roughness_color_512x512.png"
		}
	],
	"accessors":[
		{
			"bufferView":0,
			"componentType":5126,
			"count":1913,
			"max":[
				563.781982421875,
				643.49853515625,
				135.6150665283203
			],
			"min":[
				-537.3410034179688,
				-616.9993896484375,
				-2174.78857421875
			],
			"type":"VEC3"
		},
		{
			"bufferView":1,
			"componentType":5126,
			"count":1913,
			"type":"VEC3"
		},
		{
			"bufferView":2,
			"componentType":5126,
			"count":1913,
			"type":"VEC2"
		},
		{
			"bufferView":3,
			"componentType":5123,
			"count":9720,
			"type":"SCALAR"
		}
	],
	"bufferViews":[
		{
			"buffer":0,
			"byteLength":22956,
			"byteOffset":0,
			"target":34962
		},
		{
			"buffer":0,
			"byteLength":22956,
			"byteOffset":22956,
			"target":34962
		},
		{
			"buffer":0,
			"byteLength":15304,
			"byteOffset":45912,
			"target":34962
		},
		{
			"buffer":0,
			"byteLength":19440,
			"byteOffset":61216,
			"target":34963
		}
	],
	"samplers":[
		{
			"magFilter":9729,
			"minFilter":9987
		}
	],
	"buffers":[
		{
			"byteLength":80656,
			"uri":"DecorationTree_1.bin"
		}
	]
}
