{
	"asset":{
		"generator":"Khronos glTF Blender I/O v4.3.47",
		"version":"2.0"
	},
	"scene":0,
	"scenes":[
		{
			"name":"Scene",
			"nodes":[
				2
			]
		}
	],
	"nodes":[
		{
			"name":"EnergyBlade",
			"rotation":[
				-8.557136332854043e-09,
				2.4203236748121526e-08,
				-4.1422078995684666e-16,
				1
			]
		},
		{
			"mesh":0,
			"name":"EnergyBlade_geo",
			"skin":0
		},
		{
			"children":[
				1,
				0
			],
			"name":"Armature"
		}
	],
	"materials":[
		{
			"alphaMode":"BLEND",
			"emissiveFactor":[
				1,
				0.1939069628715515,
				0
			],
			"emissiveTexture":{
				"index":0
			},
			"name":"EnergyBlade_Mat",
			"pbrMetallicRoughness":{
				"baseColorTexture":{
					"index":1
				},
				"metallicFactor":0
			}
		}
	],
	"meshes":[
		{
			"extras":{
				"targetNames":[
					"Blade_show"
				]
			},
			"name":"EnergyBlade_geo.baked",
			"primitives":[
				{
					"attributes":{
						"POSITION":0,
						"NORMAL":1,
						"TEXCOORD_0":2,
						"JOINTS_0":3,
						"WEIGHTS_0":4
					},
					"indices":5,
					"material":0,
					"targets":[
						{
							"POSITION":6,
							"NORMAL":7
						}
					]
				}
			],
			"weights":[
				0
			]
		}
	],
	"textures":[
		{
			"sampler":0,
			"source":0
		},
		{
			"sampler":0,
			"source":1
		}
	],
	"images":[
		{
			"mimeType":"image/png",
			"name":"EnergyBlade_Mask",
			"uri":"EnergyBlade_Mask.png"
		},
		{
			"mimeType":"image/png",
			"name":"EnergyBlade_ALB",
			"uri":"EnergyBlade_ALB.png"
		}
	],
	"skins":[
		{
			"inverseBindMatrices":8,
			"joints":[
				0
			],
			"name":"Armature"
		}
	],
	"accessors":[
		{
			"bufferView":0,
			"componentType":5126,
			"count":1193,
			"max":[
				0.008762831799685955,
				0.18713442981243134,
				0.03373299539089203
			],
			"min":[
				-0.008762819692492485,
				-0.7294461727142334,
				-0.021081963554024696
			],
			"type":"VEC3"
		},
		{
			"bufferView":1,
			"componentType":5126,
			"count":1193,
			"type":"VEC3"
		},
		{
			"bufferView":2,
			"componentType":5126,
			"count":1193,
			"type":"VEC2"
		},
		{
			"bufferView":3,
			"componentType":5121,
			"count":1193,
			"type":"VEC4"
		},
		{
			"bufferView":4,
			"componentType":5126,
			"count":1193,
			"type":"VEC4"
		},
		{
			"bufferView":5,
			"componentType":5123,
			"count":2526,
			"type":"SCALAR"
		},
		{
			"componentType":5126,
			"count":1193,
			"max":[
				0,
				0,
				0
			],
			"min":[
				0,
				0,
				0
			],
			"sparse":{
				"count":1,
				"indices":{
					"bufferView":6,
					"componentType":5121
				},
				"values":{
					"bufferView":7
				}
			},
			"type":"VEC3"
		},
		{
			"componentType":5126,
			"count":1193,
			"sparse":{
				"count":111,
				"indices":{
					"bufferView":8,
					"componentType":5123
				},
				"values":{
					"bufferView":9
				}
			},
			"type":"VEC3"
		},
		{
			"bufferView":10,
			"componentType":5126,
			"count":1,
			"type":"MAT4"
		}
	],
	"bufferViews":[
		{
			"buffer":0,
			"byteLength":14316,
			"byteOffset":0,
			"target":34962
		},
		{
			"buffer":0,
			"byteLength":14316,
			"byteOffset":14316,
			"target":34962
		},
		{
			"buffer":0,
			"byteLength":9544,
			"byteOffset":28632,
			"target":34962
		},
		{
			"buffer":0,
			"byteLength":4772,
			"byteOffset":38176,
			"target":34962
		},
		{
			"buffer":0,
			"byteLength":19088,
			"byteOffset":42948,
			"target":34962
		},
		{
			"buffer":0,
			"byteLength":5052,
			"byteOffset":62036,
			"target":34963
		},
		{
			"buffer":0,
			"byteLength":1,
			"byteOffset":67088
		},
		{
			"buffer":0,
			"byteLength":12,
			"byteOffset":67092
		},
		{
			"buffer":0,
			"byteLength":222,
			"byteOffset":67104
		},
		{
			"buffer":0,
			"byteLength":1332,
			"byteOffset":67328
		},
		{
			"buffer":0,
			"byteLength":64,
			"byteOffset":68660
		}
	],
	"samplers":[
		{
			"magFilter":9729,
			"minFilter":9987
		}
	],
	"buffers":[
		{
			"byteLength":68724,
			"uri":"EnergyBlade.bin"
		}
	]
}
